<svg width="160" height="41" viewBox="0 0 160 41" fill="none" xmlns="http://www.w3.org/2000/svg">
<g clip-path="url(#clip0_96_39)">
<path d="M11.832 32.32C10.0187 32.32 8.46133 32.0107 7.16 31.392C5.88 30.7733 4.71733 29.8453 3.672 28.608L6.552 25.728C7.21333 26.6027 7.98133 27.2853 8.856 27.776C9.73067 28.2453 10.7973 28.48 12.056 28.48C13.1867 28.48 14.0827 28.256 14.744 27.808C15.4267 27.36 15.768 26.7413 15.768 25.952C15.768 25.2693 15.576 24.7147 15.192 24.288C14.808 23.8613 14.296 23.4987 13.656 23.2C13.0373 22.9013 12.344 22.6347 11.576 22.4C10.8293 22.144 10.072 21.856 9.304 21.536C8.55733 21.216 7.864 20.8213 7.224 20.352C6.60533 19.8613 6.104 19.2427 5.72 18.496C5.336 17.728 5.144 16.768 5.144 15.616C5.144 14.2507 5.47467 13.088 6.136 12.128C6.79733 11.168 7.704 10.432 8.856 9.92C10.008 9.408 11.3093 9.152 12.76 9.152C14.296 9.152 15.6827 9.44 16.92 10.016C18.1573 10.592 19.1707 11.3387 19.96 12.256L17.08 15.136C16.4187 14.4107 15.736 13.8773 15.032 13.536C14.3493 13.1947 13.5707 13.024 12.696 13.024C11.6933 13.024 10.904 13.216 10.328 13.6C9.752 13.984 9.464 14.5387 9.464 15.264C9.464 15.8827 9.656 16.384 10.04 16.768C10.424 17.152 10.9253 17.4827 11.544 17.76C12.184 18.0373 12.8773 18.304 13.624 18.56C14.392 18.816 15.1493 19.104 15.896 19.424C16.664 19.744 17.3573 20.16 17.976 20.672C18.616 21.184 19.128 21.8453 19.512 22.656C19.896 23.4453 20.088 24.4267 20.088 25.6C20.088 27.6907 19.352 29.3333 17.88 30.528C16.408 31.7227 14.392 32.32 11.832 32.32ZM33.4748 32V23.136C33.4748 22.2187 33.1868 21.472 32.6108 20.896C32.0348 20.32 31.2881 20.032 30.3708 20.032C29.7734 20.032 29.2401 20.16 28.7708 20.416C28.3014 20.672 27.9281 21.0347 27.6508 21.504C27.3948 21.9733 27.2668 22.5173 27.2668 23.136L25.6348 22.304C25.6348 21.088 25.8908 20.032 26.4028 19.136C26.9361 18.2187 27.6614 17.504 28.5788 16.992C29.5174 16.48 30.5734 16.224 31.7468 16.224C32.8774 16.224 33.8908 16.512 34.7868 17.088C35.6828 17.6427 36.3868 18.3787 36.8988 19.296C37.4108 20.192 37.6667 21.1627 37.6667 22.208V32H33.4748ZM23.0748 32V16.544H27.2668V32H23.0748ZM47.5075 32.32C46.0995 32.32 44.8302 31.968 43.6995 31.264C42.5688 30.56 41.6835 29.6 41.0435 28.384C40.4035 27.168 40.0835 25.8027 40.0835 24.288C40.0835 22.752 40.4035 21.376 41.0435 20.16C41.6835 18.944 42.5688 17.984 43.6995 17.28C44.8302 16.576 46.0995 16.224 47.5075 16.224C48.6168 16.224 49.6088 16.448 50.4835 16.896C51.3582 17.344 52.0515 17.9733 52.5635 18.784C53.0968 19.5733 53.3848 20.4693 53.4275 21.472V27.04C53.3848 28.064 53.0968 28.9707 52.5635 29.76C52.0515 30.5493 51.3582 31.1787 50.4835 31.648C49.6088 32.096 48.6168 32.32 47.5075 32.32ZM48.2755 28.448C49.4488 28.448 50.3982 28.064 51.1235 27.296C51.8488 26.5067 52.2115 25.4933 52.2115 24.256C52.2115 23.4453 52.0408 22.7307 51.6995 22.112C51.3795 21.472 50.9208 20.9813 50.3235 20.64C49.7475 20.2773 49.0648 20.096 48.2755 20.096C47.5075 20.096 46.8248 20.2773 46.2275 20.64C45.6515 20.9813 45.1928 21.472 44.8515 22.112C44.5315 22.7307 44.3715 23.4453 44.3715 24.256C44.3715 25.088 44.5315 25.824 44.8515 26.464C45.1928 27.0827 45.6515 27.5733 46.2275 27.936C46.8248 28.2773 47.5075 28.448 48.2755 28.448ZM51.9875 32V27.84L52.6595 24.064L51.9875 20.352V16.544H56.1475V32H51.9875ZM68.432 32.32C67.3227 32.32 66.32 32.096 65.424 31.648C64.528 31.1787 63.8133 30.5493 63.28 29.76C62.7467 28.9707 62.4587 28.064 62.416 27.04V21.568C62.4587 20.544 62.7467 19.6373 63.28 18.848C63.8347 18.0373 64.5493 17.3973 65.424 16.928C66.32 16.4587 67.3227 16.224 68.432 16.224C69.8613 16.224 71.1413 16.576 72.272 17.28C73.4027 17.984 74.288 18.944 74.928 20.16C75.5893 21.376 75.92 22.752 75.92 24.288C75.92 25.8027 75.5893 27.168 74.928 28.384C74.288 29.6 73.4027 30.56 72.272 31.264C71.1413 31.968 69.8613 32.32 68.432 32.32ZM59.856 38.464V16.544H64.048V20.608L63.344 24.352L64.016 28.096V38.464H59.856ZM67.696 28.448C68.464 28.448 69.1467 28.2773 69.744 27.936C70.3413 27.5733 70.8 27.0827 71.12 26.464C71.4613 25.824 71.632 25.088 71.632 24.256C71.632 23.4453 71.4613 22.7307 71.12 22.112C70.8 21.472 70.3413 20.9813 69.744 20.64C69.1467 20.2773 68.464 20.096 67.696 20.096C66.9493 20.096 66.2773 20.2773 65.68 20.64C65.0827 20.9813 64.6133 21.472 64.272 22.112C63.952 22.7307 63.792 23.4453 63.792 24.256C63.792 25.088 63.952 25.824 64.272 26.464C64.6133 27.0827 65.072 27.5733 65.648 27.936C66.2453 28.2773 66.928 28.448 67.696 28.448ZM85.6445 32.32C83.8312 32.32 82.2738 32.0107 80.9725 31.392C79.6925 30.7733 78.5298 29.8453 77.4845 28.608L80.3645 25.728C81.0258 26.6027 81.7938 27.2853 82.6685 27.776C83.5432 28.2453 84.6098 28.48 85.8685 28.48C86.9992 28.48 87.8952 28.256 88.5565 27.808C89.2392 27.36 89.5805 26.7413 89.5805 25.952C89.5805 25.2693 89.3885 24.7147 89.0045 24.288C88.6205 23.8613 88.1085 23.4987 87.4685 23.2C86.8498 22.9013 86.1565 22.6347 85.3885 22.4C84.6418 22.144 83.8845 21.856 83.1165 21.536C82.3698 21.216 81.6765 20.8213 81.0365 20.352C80.4178 19.8613 79.9165 19.2427 79.5325 18.496C79.1485 17.728 78.9565 16.768 78.9565 15.616C78.9565 14.2507 79.2872 13.088 79.9485 12.128C80.6098 11.168 81.5165 10.432 82.6685 9.92C83.8205 9.408 85.1218 9.152 86.5725 9.152C88.1085 9.152 89.4952 9.44 90.7325 10.016C91.9698 10.592 92.9832 11.3387 93.7725 12.256L90.8925 15.136C90.2312 14.4107 89.5485 13.8773 88.8445 13.536C88.1618 13.1947 87.3832 13.024 86.5085 13.024C85.5058 13.024 84.7165 13.216 84.1405 13.6C83.5645 13.984 83.2765 14.5387 83.2765 15.264C83.2765 15.8827 83.4685 16.384 83.8525 16.768C84.2365 17.152 84.7378 17.4827 85.3565 17.76C85.9965 18.0373 86.6898 18.304 87.4365 18.56C88.2045 18.816 88.9618 19.104 89.7085 19.424C90.4765 19.744 91.1698 20.16 91.7885 20.672C92.4285 21.184 92.9405 21.8453 93.3245 22.656C93.7085 23.4453 93.9005 24.4267 93.9005 25.6C93.9005 27.6907 93.1645 29.3333 91.6925 30.528C90.2205 31.7227 88.2045 32.32 85.6445 32.32ZM107.287 32V23.136C107.287 22.2187 106.999 21.472 106.423 20.896C105.847 20.32 105.101 20.032 104.183 20.032C103.586 20.032 103.053 20.16 102.583 20.416C102.114 20.672 101.741 21.0347 101.463 21.504C101.207 21.9733 101.079 22.5173 101.079 23.136L99.4473 22.304C99.4473 21.088 99.7033 20.032 100.215 19.136C100.727 18.2187 101.431 17.504 102.327 16.992C103.245 16.48 104.29 16.224 105.463 16.224C106.637 16.224 107.671 16.48 108.567 16.992C109.485 17.504 110.199 18.208 110.711 19.104C111.223 20 111.479 21.0347 111.479 22.208V32H107.287ZM96.8873 32V8.864H101.079V32H96.8873ZM122.12 32.32C120.563 32.32 119.155 31.968 117.896 31.264C116.659 30.5387 115.667 29.568 114.92 28.352C114.195 27.1147 113.832 25.7387 113.832 24.224C113.832 22.7093 114.195 21.3547 114.92 20.16C115.645 18.944 116.637 17.984 117.896 17.28C119.155 16.5547 120.552 16.192 122.088 16.192C123.667 16.192 125.075 16.5547 126.312 17.28C127.571 17.984 128.563 18.944 129.288 20.16C130.013 21.3547 130.376 22.7093 130.376 24.224C130.376 25.7387 130.013 27.1147 129.288 28.352C128.563 29.568 127.571 30.5387 126.312 31.264C125.075 31.968 123.677 32.32 122.12 32.32ZM122.088 28.416C122.877 28.416 123.571 28.2453 124.168 27.904C124.787 27.5413 125.256 27.0507 125.576 26.432C125.917 25.792 126.088 25.0667 126.088 24.256C126.088 23.4453 125.917 22.7307 125.576 22.112C125.235 21.4933 124.765 21.0133 124.168 20.672C123.571 20.3093 122.877 20.128 122.088 20.128C121.32 20.128 120.637 20.3093 120.04 20.672C119.443 21.0133 118.973 21.4933 118.632 22.112C118.291 22.7307 118.12 23.4453 118.12 24.256C118.12 25.0667 118.291 25.792 118.632 26.432C118.973 27.0507 119.443 27.5413 120.04 27.904C120.637 28.2453 121.32 28.416 122.088 28.416ZM136.859 32L131.067 16.544H135.291L139.067 27.776L137.787 27.808L141.659 16.544H144.699L148.571 27.808L147.291 27.776L151.067 16.544H155.291L149.531 32H146.491L142.587 21.312H143.771L139.867 32H136.859Z" fill="white"/>
<path d="M11.832 32.32C10.0187 32.32 8.46133 32.0107 7.16 31.392C5.88 30.7733 4.71733 29.8453 3.672 28.608L6.552 25.728C7.21333 26.6027 7.98133 27.2853 8.856 27.776C9.73067 28.2453 10.7973 28.48 12.056 28.48C13.1867 28.48 14.0827 28.256 14.744 27.808C15.4267 27.36 15.768 26.7413 15.768 25.952C15.768 25.2693 15.576 24.7147 15.192 24.288C14.808 23.8613 14.296 23.4987 13.656 23.2C13.0373 22.9013 12.344 22.6347 11.576 22.4C10.8293 22.144 10.072 21.856 9.304 21.536C8.55733 21.216 7.864 20.8213 7.224 20.352C6.60533 19.8613 6.104 19.2427 5.72 18.496C5.336 17.728 5.144 16.768 5.144 15.616C5.144 14.2507 5.47467 13.088 6.136 12.128C6.79733 11.168 7.704 10.432 8.856 9.92C10.008 9.408 11.3093 9.152 12.76 9.152C14.296 9.152 15.6827 9.44 16.92 10.016C18.1573 10.592 19.1707 11.3387 19.96 12.256L17.08 15.136C16.4187 14.4107 15.736 13.8773 15.032 13.536C14.3493 13.1947 13.5707 13.024 12.696 13.024C11.6933 13.024 10.904 13.216 10.328 13.6C9.752 13.984 9.464 14.5387 9.464 15.264C9.464 15.8827 9.656 16.384 10.04 16.768C10.424 17.152 10.9253 17.4827 11.544 17.76C12.184 18.0373 12.8773 18.304 13.624 18.56C14.392 18.816 15.1493 19.104 15.896 19.424C16.664 19.744 17.3573 20.16 17.976 20.672C18.616 21.184 19.128 21.8453 19.512 22.656C19.896 23.4453 20.088 24.4267 20.088 25.6C20.088 27.6907 19.352 29.3333 17.88 30.528C16.408 31.7227 14.392 32.32 11.832 32.32Z" fill="#F84565"/>
<path d="M85.632 32.32C83.8187 32.32 82.2613 32.0107 80.96 31.392C79.68 30.7733 78.5173 29.8453 77.472 28.608L80.352 25.728C81.0133 26.6027 81.7813 27.2853 82.656 27.776C83.5307 28.2453 84.5973 28.48 85.856 28.48C86.9867 28.48 87.8827 28.256 88.544 27.808C89.2267 27.36 89.568 26.7413 89.568 25.952C89.568 25.2693 89.376 24.7147 88.992 24.288C88.608 23.8613 88.096 23.4987 87.456 23.2C86.8373 22.9013 86.144 22.6347 85.376 22.4C84.6293 22.144 83.872 21.856 83.104 21.536C82.3573 21.216 81.664 20.8213 81.024 20.352C80.4053 19.8613 79.904 19.2427 79.52 18.496C79.136 17.728 78.944 16.768 78.944 15.616C78.944 14.2507 79.2747 13.088 79.936 12.128C80.5973 11.168 81.504 10.432 82.656 9.92C83.808 9.408 85.1093 9.152 86.56 9.152C88.096 9.152 89.4827 9.44 90.72 10.016C91.9573 10.592 92.9707 11.3387 93.76 12.256L90.88 15.136C90.2187 14.4107 89.536 13.8773 88.832 13.536C88.1493 13.1947 87.3707 13.024 86.496 13.024C85.4933 13.024 84.704 13.216 84.128 13.6C83.552 13.984 83.264 14.5387 83.264 15.264C83.264 15.8827 83.456 16.384 83.84 16.768C84.224 17.152 84.7253 17.4827 85.344 17.76C85.984 18.0373 86.6773 18.304 87.424 18.56C88.192 18.816 88.9493 19.104 89.696 19.424C90.464 19.744 91.1573 20.16 91.776 20.672C92.416 21.184 92.928 21.8453 93.312 22.656C93.696 23.4453 93.888 24.4267 93.888 25.6C93.888 27.6907 93.152 29.3333 91.68 30.528C90.208 31.7227 88.192 32.32 85.632 32.32Z" fill="#F84565"/>
</g>
<defs>
<clipPath id="clip0_96_39">
<rect width="160" height="41" fill="white"/>
</clipPath>
</defs>
</svg>
